<?xml version="1.0" encoding="utf-8"?>
<!-- Generator: Adobe Illustrator 19.0.0, SVG Export Plug-In . SVG Version: 6.00 Build 0)  -->
<svg version="1.1" id="layer" xmlns="http://www.w3.org/2000/svg" xmlns:xlink="http://www.w3.org/1999/xlink" x="0px" y="0px"
	 viewBox="-153 -46 652 652" style="enable-background:new -153 -46 652 652;" xml:space="preserve">
<style type="text/css">
	.st0{fill:#0072BE;}
	.st1{fill:#5B2500;}
	.st2{fill:#00AEB7;}
	.st3{fill:#50AE34;}
	.st4{fill:#F9BE00;}
	.st5{fill:#BD002E;}
</style>
<g>
	<path class="st0" d="M55,394.7l1.2-0.4c1.4-0.5,1.2-0.9,1.5-2.9l2.2-12c0.1-0.5,0.2-1,0.2-1.6c0-0.6-0.2-0.8-1.3-1.1l-1.1-0.4
		l0.1-0.6h13.5l0.1,0.2l-0.8,4.3h-0.7l-0.8-1.9c-0.5-1.4-0.9-1.6-3.4-1.6c-2.7,0-3.3,0-3.5,1.3l-1.1,5.7c-0.1,0.2-0.1,0.4-0.1,0.6
		c0,0.4,0.3,0.4,0.7,0.4h2.4c1,0,1.1,0.1,1.8-0.9l1-1.6h0.6l-1.1,6.2H66l-0.5-1.6c-0.3-0.8-0.4-0.9-1.5-0.9h-2.2c-0.8,0-0.9,0-1,0.9
		l-0.7,4c-0.2,0.9-0.4,2-0.4,2.4c0,0.5,0.7,0.7,1.1,0.8l1.7,0.6l-0.1,0.6h-7.5L55,394.7z"/>
	<path class="st0" d="M69.8,391c0-5.1,2.8-10.2,8.5-10.2c3.1,0,4.6,1.6,4.6,4.9c0,3.3-1.7,10-8.5,10C71.9,395.7,69.8,394.4,69.8,391
		 M75.4,394.6c3.8,0,5.1-5.3,5.1-8.9c0-2.4-0.9-3.8-3-3.8c-4.3,0-5.4,6.1-5.4,8.8C72.2,393.2,73,394.6,75.4,394.6"/>
	<path class="st0" d="M88.8,395c-0.5,0.2-1.3,0.5-2.1,0.5c-0.4,0-0.8-0.7-0.8-1c0-0.2,0-0.5,0.1-0.7l2.2-8.5
		c0.1-0.5,0.3-1.1,0.3-1.7c0-1.1-0.9-1.2-1.2-1.2c-0.5,0-1,0.1-1.5,0.2l0.1-0.8c0.6-0.3,2.2-1.1,3.1-1.1c0.5,0,0.8,0.3,1,0.6
		c0.2,0.3,0.4,0.6,0.8,0.6c0.5,0,0.9-0.3,1.6-0.6c0.6-0.3,1.4-0.6,2.5-0.6c0.5,0,0.9,0.2,1,0.4c0.2,0.3,0.3,0.6,0.3,0.9
		c0,0.2-0.2,0.5-0.3,0.7l-0.7,1.3h-0.4c0-0.5-0.7-1.7-1.9-1.7c-1.6,0-2.3,1.4-2.9,3.8l-1.5,5.7c-0.1,0.5-0.3,1-0.3,1.5
		c0,0.9,0.3,1,0.7,1.2L88.8,395z"/>
	<path class="st0" d="M111,384.7c-0.2-0.9-0.6-2.8-2.7-2.8c-1.4,0-2.4,0.9-2.4,2.1c0,2,2.2,2.8,3.6,4.1c1,0.9,1.7,1.5,1.7,2.9
		c0,2.7-2.4,4.7-5.6,4.7c-1.6,0-3.1-0.8-3.3-1.3c-0.1-0.2-0.2-0.6-0.2-1.1c0-0.2,0.1-0.4,0.2-0.6l0.8-1.7h0.5
		c0.1,1.3,0.9,3.6,3.4,3.6c1.3,0,2.4-1.1,2.4-2.4c0-3.4-5.2-3.7-5.2-7.1c0-2.7,2.7-4.3,5.5-4.3c1.3,0,2.1,0.4,2.5,0.8
		c0.2,0.2,0.4,0.5,0.4,1c0,0.2-0.1,0.4-0.1,0.6l-0.7,1.6H111z"/>
	<path class="st0" d="M124.5,393.5c-1.2,0.8-3.4,2.1-6,2.1c-2,0-3.9-1.2-3.9-4.3c0-2.7,0.9-5.8,2.2-7.6c1.5-1.9,3.6-2.9,6-2.9
		c1,0,2.4,0.3,2.7,0.9c0.2,0.3,0.3,0.7,0.3,1c0,0.2-0.1,0.5-0.2,0.6l-1,1.9h-0.5c-0.1-0.9-0.3-3.3-2.6-3.3c-3,0-4.7,5.6-4.7,8.7
		c0,2.3,0.9,3.6,3.1,3.6c1.6,0,3.7-0.9,4.7-1.6L124.5,393.5z"/>
	<path class="st0" d="M134.2,393.9c-0.8,0.6-2.7,1.8-4,1.8c-1.1,0-2.3-0.9-2.3-2.3c0-1.2,0.4-2.3,0.7-3.4l1.2-4.3
		c0.2-0.6,0.4-1.7,0.4-2.1c0-1-1.4-1-2.6-1l0.1-0.6c0.8-0.3,3.7-1.1,4.3-1.1c0.3,0,0.8,0.6,0.8,0.8c0,0.6-0.8,3-1.4,5.1l-0.8,2.9
		c-0.3,0.9-0.6,2.3-0.6,2.8c0,1.4,0.8,1.6,1.4,1.6c1,0,2.1-0.5,2.8-1L134.2,393.9z M131.5,376.6c0-0.8,0.7-1.3,1.5-1.3
		c0.9,0,1.3,0.4,1.3,1.2c0,0.9-0.7,1.5-1.5,1.5C132,378,131.5,377.5,131.5,376.6"/>
	<path class="st0" d="M146.9,393.6c-1.2,0.6-3.6,2-6.4,2c-2.7,0-4-1.4-4-4.3c0-4.5,2.7-10.6,8.5-10.6c1.9,0,3.5,0.9,3.5,2.9
		c0,1.1-0.5,2.1-1.2,2.9c-0.6,0.8-2.6,1.3-4.3,1.6l-1.7,0.3c-0.9,0.1-2,0.4-2.2,0.6c-0.2,0.2-0.2,0.4-0.2,1.4c0,2.1,0.5,3.8,3.1,3.8
		c1.9,0,4.3-1.1,5.2-1.5L146.9,393.6z M142.7,387.2c1.7-0.3,3.4-1,3.4-3c0-1.3-0.7-2.3-2.1-2.3c-3.8,0-4.7,5.4-4.7,5.6
		c0,0.1,0.1,0.3,0.3,0.3c0.4,0,0.9-0.1,1.3-0.2L142.7,387.2z"/>
	<path class="st0" d="M153.1,391.8c-0.2,0.6-0.4,1.1-0.4,1.7c0,0.4,0,0.8,0.6,1.1l-0.1,0.4c-0.3,0.1-1.5,0.5-2,0.5
		c-0.2,0-0.8-0.5-0.8-1.3c0-0.1,0-0.3,0-0.4l2.3-8.5c0.1-0.5,0.3-1.1,0.3-1.7c0-1.1-0.9-1.2-1.2-1.2c-0.5,0-1,0.1-1.5,0.2l0.1-0.8
		c0.6-0.3,2.4-1.1,3.3-1.1c0.9,0,1.1,1.2,1.7,1.2c0.6,0,3.3-1.2,5.1-1.2c2.7,0,2.9,1.1,2.9,2.2c0,0.5-0.2,1.1-0.4,1.6l-1.6,6.3
		c-0.1,0.5-0.2,1.1-0.2,1.6c0,1.2,0.6,1.5,1.3,1.5c0.9,0,2.4-0.9,3-1.2l-0.2,0.9c-0.6,0.4-2.4,1.9-4,1.9c-1.5,0-2.4-1.1-2.4-2.3
		c0-0.4,0.1-1.1,0.3-1.5l1.6-6.5c0.1-0.5,0.3-1,0.3-1.6c0-0.8-0.4-1.8-2.1-1.8c-2.5,0-3.8,1.2-4.6,4.2L153.1,391.8z"/>
	<path class="st0" d="M177.6,393.5c-1.2,0.8-3.4,2.1-6,2.1c-2,0-3.9-1.2-3.9-4.3c0-2.7,0.9-5.8,2.2-7.6c1.5-1.9,3.6-2.9,6-2.9
		c1,0,2.4,0.3,2.7,0.9c0.2,0.3,0.3,0.7,0.3,1c0,0.2-0.1,0.5-0.2,0.6l-1,1.9h-0.5c-0.1-0.9-0.3-3.3-2.6-3.3c-3,0-4.7,5.6-4.7,8.7
		c0,2.3,0.9,3.6,3.1,3.6c1.6,0,3.7-0.9,4.7-1.6L177.6,393.5z"/>
	<path class="st0" d="M190.7,393.6c-1.2,0.6-3.6,2-6.4,2c-2.7,0-4-1.4-4-4.3c0-4.5,2.7-10.6,8.4-10.6c1.9,0,3.5,0.9,3.5,2.9
		c0,1.1-0.5,2.1-1.2,2.9c-0.6,0.8-2.6,1.3-4.3,1.6l-1.7,0.3c-0.9,0.1-2,0.4-2.2,0.6c-0.2,0.2-0.2,0.4-0.2,1.4c0,2.1,0.5,3.8,3.1,3.8
		c1.9,0,4.3-1.1,5.2-1.5L190.7,393.6z M186.5,387.2c1.7-0.3,3.4-1,3.4-3c0-1.3-0.7-2.3-2.1-2.3c-3.8,0-4.7,5.4-4.7,5.6
		c0,0.1,0.1,0.3,0.3,0.3c0.4,0,0.9-0.1,1.3-0.2L186.5,387.2z"/>
	<path class="st0" d="M192.1,394.3c0-0.8,0.6-1.5,1.7-1.5c0.8,0,1.5,0.4,1.5,1.4c0,0.8-0.6,1.6-1.6,1.6
		C192.7,395.7,192.1,395.1,192.1,394.3"/>
	<path class="st0" d="M202.4,394.7l1.2-0.4c1.4-0.5,1.2-0.9,1.5-2.9l2.2-12c0.1-0.5,0.2-1,0.2-1.6c0-0.6-0.2-0.8-1.3-1.1l-1.1-0.4
		l0.1-0.6h13.5l0.1,0.2l-0.8,4.3h-0.7l-0.8-1.9c-0.6-1.4-0.9-1.6-3.4-1.6c-2.7,0-3.3,0-3.5,1.3l-1.1,5.7c-0.1,0.2-0.1,0.4-0.1,0.6
		c0,0.4,0.3,0.4,0.7,0.4h2.4c1,0,1.1,0.1,1.7-0.9l1-1.6h0.6l-1.1,6.2h-0.6l-0.5-1.6c-0.3-0.8-0.4-0.9-1.5-0.9h-2.2
		c-0.8,0-0.9,0-1,0.9l-0.7,4c-0.2,0.9-0.4,2-0.4,2.4c0,0.5,0.7,0.7,1.1,0.8l1.7,0.6l-0.1,0.6h-7.5L202.4,394.7z"/>
	<path class="st0" d="M217.2,391c0-5.1,2.8-10.2,8.5-10.2c3.1,0,4.5,1.6,4.5,4.9c0,3.3-1.7,10-8.5,10
		C219.3,395.7,217.2,394.4,217.2,391 M222.8,394.6c3.8,0,5.1-5.3,5.1-8.9c0-2.4-0.9-3.8-3-3.8c-4.3,0-5.4,6.1-5.4,8.8
		C219.6,393.2,220.4,394.6,222.8,394.6"/>
	<path class="st0" d="M236.2,395c-0.5,0.2-1.3,0.5-2.1,0.5c-0.4,0-0.8-0.7-0.8-1c0-0.2,0-0.5,0.1-0.7l2.2-8.5
		c0.1-0.5,0.3-1.1,0.3-1.7c0-1.1-0.9-1.2-1.2-1.2c-0.5,0-1,0.1-1.5,0.2l0.1-0.8c0.6-0.3,2.2-1.1,3.1-1.1c0.5,0,0.8,0.3,1,0.6
		c0.2,0.3,0.4,0.6,0.8,0.6c0.5,0,0.9-0.3,1.6-0.6c0.6-0.3,1.4-0.6,2.5-0.6c0.5,0,0.9,0.2,1.1,0.4c0.2,0.3,0.3,0.6,0.3,0.9
		c0,0.2-0.2,0.5-0.3,0.7l-0.7,1.3h-0.4c0-0.5-0.7-1.7-1.9-1.7c-1.6,0-2.3,1.4-2.9,3.8l-1.5,5.7c-0.1,0.5-0.3,1-0.3,1.5
		c0,0.9,0.3,1,0.7,1.2L236.2,395z"/>
	<path class="st0" d="M264.3,393.9c-0.5,0.4-2.4,1.8-3.8,1.8c-1.1,0-1.7-1.3-2.4-1.3c-0.6,0-2.8,1.3-5.2,1.3c-2.1,0-3.2-1.1-3.2-3.9
		c0-3,2-11,8.9-11c0.8,0,1.2,0.1,1.5,0.2c0.4,0.1,0.6,0.2,0.8,0.2c0.3,0,0.5-0.1,0.7-0.3l0.8-0.3l0.3,0.3c-0.1,0.4-0.8,2.8-1.3,5
		l-0.9,4.1c-0.2,0.8-0.4,1.8-0.4,2.4c0,1.2,0.7,1.7,1.4,1.7c1.1,0,2.2-0.6,2.8-0.9L264.3,393.9z M259.4,386.6c0.2-1,0.5-1.9,0.5-2.9
		c0-1.2-1-1.9-2-1.9c-4.5,0-5.9,7.1-5.9,9.6c0,1.9,0.7,2.9,2.4,2.9c0.7,0,2.3-0.5,3.1-1.5c0.6-0.7,1-2.3,1.3-3.8L259.4,386.6z"/>
	<path class="st0" d="M275.8,393.5c-1.2,0.8-3.4,2.1-6,2.1c-2,0-3.9-1.2-3.9-4.3c0-2.7,0.9-5.8,2.2-7.6c1.5-1.9,3.6-2.9,6-2.9
		c1,0,2.4,0.3,2.7,0.9c0.2,0.3,0.3,0.7,0.3,1c0,0.2-0.1,0.5-0.2,0.6l-1,1.9h-0.5c-0.1-0.9-0.3-3.3-2.6-3.3c-3,0-4.7,5.6-4.7,8.7
		c0,2.3,0.9,3.6,3.1,3.6c1.6,0,3.7-0.9,4.7-1.6L275.8,393.5z"/>
	<path class="st0" d="M285.3,394c-0.8,0.5-2.6,1.6-4.3,1.6c-1,0-2.1-0.7-2.1-2.1c0-0.7,0.1-1.3,0.3-2l1.8-7.9c0-0.2,0.1-0.4,0.1-0.7
		c0-0.2-0.2-0.4-0.8-0.6l-1.5-0.3l0.1-0.6l1.6-0.2c1-0.1,1-0.2,1.4-1l1.3-2.9h0.6l-0.1,2.7c0,0.2,0,0.3,0,0.5c0,0.5,0.4,0.5,0.9,0.6
		l2.4,0.3l-0.1,0.6l-2.7,0.4c-0.8,0.1-1.1,0.5-1.3,1.3l-1.3,5.7c-0.2,0.9-0.5,2.3-0.5,2.9c0,1.3,0.6,1.8,1.7,1.8c1,0,2-0.6,2.6-0.9
		L285.3,394z"/>
	<path class="st0" d="M295.2,393.9c-0.8,0.6-2.7,1.8-4,1.8c-1.1,0-2.3-0.9-2.3-2.3c0-1.2,0.4-2.3,0.7-3.4l1.2-4.3
		c0.2-0.6,0.4-1.7,0.4-2.1c0-1-1.4-1-2.6-1l0.1-0.6c0.8-0.3,3.7-1.1,4.3-1.1c0.3,0,0.8,0.6,0.8,0.8c0,0.6-0.8,3-1.4,5.1l-0.8,2.9
		c-0.3,0.9-0.6,2.3-0.6,2.8c0,1.4,0.8,1.6,1.4,1.6c1,0,2.1-0.5,2.8-1L295.2,393.9z M292.5,376.6c0-0.8,0.7-1.3,1.5-1.3
		c0.9,0,1.3,0.4,1.3,1.2c0,0.9-0.7,1.5-1.5,1.5C293,378,292.5,377.5,292.5,376.6"/>
	<path class="st0" d="M297.1,391c0-5.1,2.8-10.2,8.5-10.2c3.1,0,4.5,1.6,4.5,4.9c0,3.3-1.7,10-8.5,10
		C299.2,395.7,297.1,394.4,297.1,391 M302.7,394.6c3.8,0,5.1-5.3,5.1-8.9c0-2.4-0.9-3.8-3-3.8c-4.3,0-5.4,6.1-5.4,8.8
		C299.4,393.2,300.3,394.6,302.7,394.6"/>
	<path class="st0" d="M315.2,391.8c-0.2,0.6-0.4,1.1-0.4,1.7c0,0.4,0,0.8,0.6,1.1l-0.1,0.4c-0.3,0.1-1.5,0.5-2,0.5
		c-0.2,0-0.8-0.5-0.8-1.3c0-0.1,0-0.3,0-0.4l2.3-8.5c0.1-0.5,0.3-1.1,0.3-1.7c0-1.1-0.9-1.2-1.2-1.2c-0.5,0-1,0.1-1.5,0.2l0.1-0.8
		c0.6-0.3,2.4-1.1,3.3-1.1c0.9,0,1.1,1.2,1.7,1.2c0.6,0,3.3-1.2,5-1.2c2.7,0,2.9,1.1,2.9,2.2c0,0.5-0.2,1.1-0.4,1.6l-1.6,6.3
		c-0.1,0.5-0.2,1.1-0.2,1.6c0,1.2,0.6,1.5,1.3,1.5c0.9,0,2.4-0.9,3-1.2l-0.2,0.9c-0.6,0.4-2.4,1.9-4,1.9c-1.5,0-2.4-1.1-2.4-2.3
		c0-0.4,0.1-1.1,0.3-1.5l1.6-6.5c0.1-0.5,0.3-1,0.3-1.6c0-0.8-0.4-1.8-2.1-1.8c-2.5,0-3.8,1.2-4.6,4.2L315.2,391.8z"/>
	<path class="st0" d="M329.3,394.3c0-0.8,0.6-1.5,1.7-1.5c0.8,0,1.4,0.4,1.4,1.4c0,0.8-0.6,1.6-1.6,1.6
		C330,395.7,329.3,395.1,329.3,394.3"/>
	<path class="st0" d="M337.9,394.7l1.2-0.4c1.4-0.5,1.2-0.9,1.5-2.9l2.2-12c0.1-0.5,0.2-1,0.2-1.6c0-0.6-0.2-0.8-1.3-1.1l-1.1-0.4
		l0.1-0.6h13.5l0.1,0.2l-0.8,4.3H353l-0.8-1.9c-0.6-1.4-0.9-1.6-3.4-1.6c-2.7,0-3.3,0-3.5,1.3l-1.1,5.7c-0.1,0.2-0.1,0.4-0.1,0.6
		c0,0.4,0.3,0.4,0.7,0.4h2.4c1,0,1.1,0.1,1.7-0.9l1-1.6h0.6l-1.1,6.2h-0.6l-0.5-1.6c-0.3-0.8-0.4-0.9-1.5-0.9h-2.2
		c-0.8,0-0.9,0-1,0.9l-0.7,4c-0.2,0.9-0.4,2-0.4,2.4c0,0.5,0.7,0.7,1.1,0.8l1.7,0.6l-0.1,0.6h-7.5L337.9,394.7z"/>
	<path class="st0" d="M352.7,391c0-5.1,2.8-10.2,8.5-10.2c3.1,0,4.5,1.6,4.5,4.9c0,3.3-1.7,10-8.5,10
		C354.8,395.7,352.7,394.4,352.7,391 M358.3,394.6c3.8,0,5.1-5.3,5.1-8.9c0-2.4-0.9-3.8-3-3.8c-4.3,0-5.4,6.1-5.4,8.8
		C355.1,393.2,355.9,394.6,358.3,394.6"/>
	<path class="st0" d="M371.7,395c-0.5,0.2-1.3,0.5-2.1,0.5c-0.4,0-0.8-0.7-0.8-1c0-0.2,0-0.5,0.1-0.7l2.2-8.5
		c0.1-0.5,0.3-1.1,0.3-1.7c0-1.1-0.9-1.2-1.2-1.2c-0.5,0-1.1,0.1-1.5,0.2l0.1-0.8c0.6-0.3,2.2-1.1,3.1-1.1c0.5,0,0.8,0.3,1,0.6
		c0.2,0.3,0.4,0.6,0.8,0.6c0.5,0,0.9-0.3,1.6-0.6c0.6-0.3,1.4-0.6,2.5-0.6c0.5,0,0.9,0.2,1.1,0.4c0.2,0.3,0.3,0.6,0.3,0.9
		c0,0.2-0.2,0.5-0.3,0.7l-0.7,1.3h-0.4c0-0.5-0.7-1.7-1.9-1.7c-1.6,0-2.3,1.4-3,3.8l-1.5,5.7c-0.1,0.5-0.3,1-0.3,1.5
		c0,0.9,0.3,1,0.7,1.2L371.7,395z"/>
	<path class="st0" d="M387,395c-0.3,0.1-1.5,0.5-2,0.5c-0.2,0-0.8-0.5-0.8-1.3c0-0.1,0-0.3,0-0.4l3-12.2c0.4-1.5,0.9-4.2,0.9-4.8
		c0-0.3-0.1-0.6-0.9-0.7l-1.4-0.2l0.1-0.5c1.6-0.4,3.5-1,4.2-1c0.3,0,0.7,0.2,0.7,0.4c0,0.2-0.1,0.4-0.1,0.6l-1.5,5.9
		c0,0.2-0.1,0.4-0.1,0.6c0,0.1,0,0.2,0.2,0.2c0.5,0,2.5-1.3,5-1.3c1.6,0,2.6,0.7,2.6,1.8c0,0.7-0.2,1.4-0.4,2.1l-1.4,5.6
		c-0.2,0.8-0.4,1.7-0.4,2.6c0,0.9,0.8,1.3,1.5,1.3c1,0,2.3-0.7,2.8-1l-0.1,0.8c-0.7,0.6-2.2,1.8-4,1.8c-1.3,0-2.3-0.9-2.4-2.2
		c0-0.6,0.2-1.4,0.4-2l1.5-6c0.1-0.6,0.3-1.1,0.3-1.8c0-0.9-0.6-1.6-2-1.6c-1.1,0-3.8,0.1-4.7,4.1l-1.4,5.8
		c-0.1,0.6-0.3,1.1-0.3,1.7c0,0.4,0,0.8,0.6,1L387,395z"/>
	<path class="st0" d="M411.3,393.6c-1.2,0.6-3.6,2-6.4,2c-2.7,0-4-1.4-4-4.3c0-4.5,2.7-10.6,8.4-10.6c1.9,0,3.5,0.9,3.5,2.9
		c0,1.1-0.5,2.1-1.2,2.9c-0.6,0.8-2.6,1.3-4.3,1.6l-1.7,0.3c-0.9,0.1-2,0.4-2.2,0.6c-0.2,0.2-0.2,0.4-0.2,1.4c0,2.1,0.5,3.8,3.1,3.8
		c1.9,0,4.3-1.1,5.2-1.5L411.3,393.6z M407.1,387.2c1.7-0.3,3.4-1,3.4-3c0-1.3-0.7-2.3-2.1-2.3c-3.8,0-4.7,5.4-4.7,5.6
		c0,0.1,0.1,0.3,0.3,0.3c0.4,0,0.9-0.1,1.3-0.2L407.1,387.2z"/>
	<path class="st0" d="M428.8,393.9c-0.5,0.4-2.4,1.8-3.8,1.8c-1.1,0-1.7-1.3-2.4-1.3c-0.6,0-2.8,1.3-5.2,1.3c-2.1,0-3.2-1.1-3.2-3.9
		c0-3,2-11,8.9-11c0.8,0,1.2,0.1,1.5,0.2c0.3,0.1,0.5,0.2,0.8,0.2c0.3,0,0.5-0.1,0.7-0.3l0.8-0.3l0.3,0.3c-0.1,0.4-0.8,2.8-1.2,5
		l-0.9,4.1c-0.2,0.8-0.4,1.8-0.4,2.4c0,1.2,0.7,1.7,1.4,1.7c1.1,0,2.2-0.6,2.8-0.9L428.8,393.9z M424,386.6c0.2-1,0.5-1.9,0.5-2.9
		c0-1.2-1-1.9-2-1.9c-4.5,0-5.9,7.1-5.9,9.6c0,1.9,0.7,2.9,2.4,2.9c0.7,0,2.3-0.5,3.1-1.5c0.6-0.7,1-2.3,1.3-3.8L424,386.6z"/>
	<path class="st0" d="M437.4,393.6c-0.7,0.5-2.5,2.1-4,2.1c-0.9,0-2.3-0.6-2.3-2.6c0-0.2,0.1-0.7,0.2-1.1l2.4-10.6
		c0.4-1.4,1-4,1-4.6c0-0.3-0.1-0.6-0.9-0.7l-1.4-0.2l0.1-0.5c1.6-0.4,3.5-1,4.2-1c0.3,0,0.7,0.2,0.7,0.4c0,0.2-0.1,0.4-0.1,0.6
		l-3.3,13.3c-0.3,1.3-0.7,2.5-0.7,3.7c0,1.1,0.4,1.6,1.3,1.6c1.2,0,2.4-0.9,3.1-1.4L437.4,393.6z"/>
	<path class="st0" d="M446.1,394c-0.8,0.5-2.7,1.6-4.3,1.6c-1,0-2.1-0.7-2.1-2.1c0-0.7,0.1-1.3,0.3-2l1.8-7.9c0-0.2,0.1-0.4,0.1-0.7
		c0-0.2-0.2-0.4-0.8-0.6l-1.5-0.3l0.1-0.6l1.6-0.2c1-0.1,1-0.2,1.4-1l1.3-2.9h0.6l-0.1,2.7c0,0.2,0,0.3,0,0.5c0,0.5,0.4,0.5,0.9,0.6
		l2.4,0.3l-0.1,0.6l-2.7,0.4c-0.8,0.1-1.1,0.5-1.3,1.3l-1.3,5.7c-0.2,0.9-0.5,2.3-0.5,2.9c0,1.3,0.6,1.8,1.7,1.8c1,0,2-0.6,2.6-0.9
		L446.1,394z"/>
	<path class="st0" d="M451.9,395c-0.3,0.1-1.5,0.5-2,0.5c-0.2,0-0.8-0.5-0.8-1.3c0-0.1,0-0.3,0-0.4l3-12.2c0.4-1.5,0.9-4.2,0.9-4.8
		c0-0.3-0.1-0.6-0.9-0.7l-1.4-0.2l0.1-0.5c1.6-0.4,3.5-1,4.2-1c0.3,0,0.7,0.2,0.7,0.4c0,0.2-0.1,0.4-0.1,0.6l-1.5,5.9
		c0,0.2-0.1,0.4-0.1,0.6c0,0.1,0,0.2,0.2,0.2c0.5,0,2.5-1.3,5-1.3c1.6,0,2.6,0.7,2.6,1.8c0,0.7-0.2,1.4-0.4,2.1l-1.4,5.6
		c-0.2,0.8-0.4,1.7-0.4,2.6c0,0.9,0.8,1.3,1.5,1.3c1,0,2.2-0.7,2.8-1l-0.1,0.8c-0.7,0.6-2.2,1.8-4,1.8c-1.3,0-2.3-0.9-2.4-2.2
		c0-0.6,0.2-1.4,0.4-2l1.5-6c0.1-0.6,0.3-1.1,0.3-1.8c0-0.9-0.6-1.6-2-1.6c-1.1,0-3.8,0.1-4.7,4.1l-1.4,5.8
		c-0.1,0.6-0.3,1.1-0.3,1.7c0,0.4,0,0.8,0.6,1L451.9,395z"/>
	<path class="st0" d="M465.3,394.3c0-0.8,0.6-1.5,1.7-1.5c0.8,0,1.5,0.4,1.5,1.4c0,0.8-0.6,1.6-1.6,1.6
		C465.9,395.7,465.3,395.1,465.3,394.3"/>
	<path class="st0" d="M-119.7,333.7h2.9l8.2,19.4h-3l-2-4.9h-9.5l-2,4.9h-2.9L-119.7,333.7z M-118.4,336.4l-3.9,9.6h7.7
		L-118.4,336.4z"/>
	<polygon class="st0" points="-105,333.7 -100.4,333.7 -94.3,349.8 -88.4,333.7 -83.8,333.7 -83.8,353.1 -86.6,353.1 -86.6,336.3 
		-86.6,336.3 -93,353.1 -95.7,353.1 -102.2,336.3 -102.2,336.3 -102.2,353.1 -105,353.1 	"/>
	<polygon class="st0" points="-76.2,333.7 -65.3,333.7 -65.3,336.2 -73.4,336.2 -73.4,341.8 -66.1,341.8 -66.1,344.3 -73.4,344.3 
		-73.4,350.7 -65.3,350.7 -65.3,353.1 -76.2,353.1 	"/>
	<path class="st0" d="M-58.6,333.7h4.7c3.8,0,7.5,0.6,7.5,5.2c0,2.4-1.7,4-4,4.4v0c0.9,0.3,1.3,0.8,1.9,1.9l3.7,7.7h-3.2l-3-6.7
		c-0.9-1.9-1.8-1.9-3.2-1.9h-1.7v8.6h-2.8V333.7z M-55.8,342.1h2.4c2.6,0,4.2-1.2,4.2-3c0-1.7-1.3-2.9-3.9-2.9h-2.7V342.1z"/>
	<rect x="-38.9" y="333.7" class="st0" width="2.8" height="19.4"/>
	<path class="st0" d="M-16.5,336.9c-1.2-0.7-2.6-1.1-4-1.1c-4.5,0-7.4,3.2-7.4,7.6c0,4.5,3.3,7.6,7.3,7.6c1.4,0,3.3-0.4,4.2-0.9
		l0.2,2.7c-1.5,0.6-3.3,0.7-4.4,0.7c-6.1,0-10.2-3.9-10.2-10.1c0-6,4.3-9.9,10.2-9.9c1.5,0,3,0.2,4.4,0.8L-16.5,336.9z"/>
	<path class="st0" d="M-5.4,333.7h2.9l8.2,19.4h-3l-2-4.9h-9.5l-2,4.9h-2.9L-5.4,333.7z M-4,336.4l-3.9,9.6h7.7L-4,336.4z"/>
	<polygon class="st0" points="11,333.7 14.8,333.7 23.3,349.3 23.4,349.3 23.4,333.7 26.1,333.7 26.1,353.1 22.6,353.1 13.8,337.2 
		13.8,337.2 13.8,353.1 11,353.1 	"/>
	<path class="st0" d="M40.3,333.7h5.1c4,0,7.3,1.4,7.3,5.8c0,4.3-3.4,5.8-6.9,5.8H43v7.7h-2.8V333.7z M43,342.9h2.7
		c1.7,0,3.9-0.9,3.9-3.4c0-2.4-2.6-3.3-4.3-3.3H43V342.9z"/>
	<path class="st0" d="M72.9,345.1c0,5.4-2.7,8.4-7.5,8.4c-4.8,0-7.5-2.9-7.5-8.4v-11.4h2.8v11c0,3.7,1.2,6.3,4.7,6.3
		c3.6,0,4.7-2.6,4.7-6.3v-11h2.8V345.1z"/>
	<path class="st0" d="M78.5,333.7h5.2c4,0,6.8,1.3,6.8,4.9c0,2.7-1.6,4-4,4.6v0.1c2.6,0.2,4.5,1.9,4.5,4.7c0,4.2-3.4,5.2-7.4,5.2
		h-5.2V333.7z M81.3,342h1.5c2.7,0,5-0.3,5-3.1c0-2.3-2-2.9-3.6-2.9h-2.9V342z M81.3,350.8h2.1c2.5,0,4.7-0.5,4.7-3.1
		c0-3-2.6-3.4-5-3.4h-1.8V350.8z"/>
	<polygon class="st0" points="97,333.7 99.7,333.7 99.7,350.7 107.9,350.7 107.9,353.1 97,353.1 	"/>
	<rect x="112.8" y="333.7" class="st0" width="2.8" height="19.4"/>
	<path class="st0" d="M135.8,336.9c-1.2-0.7-2.6-1.1-4-1.1c-4.5,0-7.4,3.2-7.4,7.6c0,4.5,3.3,7.6,7.3,7.6c1.4,0,3.2-0.4,4.2-0.9
		l0.2,2.7c-1.5,0.6-3.3,0.7-4.4,0.7c-6.1,0-10.2-3.9-10.2-10.1c0-6,4.3-9.9,10.2-9.9c1.5,0,3,0.2,4.4,0.8L135.8,336.9z"/>
	<polygon class="st0" points="148.9,333.7 151.7,333.7 151.7,341.8 161,341.8 161,333.7 163.8,333.7 163.8,353.1 161,353.1 
		161,344.3 151.7,344.3 151.7,353.1 148.9,353.1 	"/>
	<polygon class="st0" points="171.5,333.7 182.3,333.7 182.3,336.2 174.2,336.2 174.2,341.8 181.6,341.8 181.6,344.3 174.2,344.3 
		174.2,350.7 182.3,350.7 182.3,353.1 171.5,353.1 	"/>
	<path class="st0" d="M194.3,333.7h2.9l8.2,19.4h-3l-2-4.9h-9.5l-2,4.9H186L194.3,333.7z M195.6,336.4l-3.9,9.6h7.7L195.6,336.4z"/>
	<polygon class="st0" points="210.1,333.7 212.9,333.7 212.9,350.7 221,350.7 221,353.1 210.1,353.1 	"/>
	<polygon class="st0" points="227.2,336.2 221.1,336.2 221.1,333.7 236,333.7 236,336.2 229.9,336.2 229.9,353.1 227.2,353.1 	"/>
	<polygon class="st0" points="240.2,333.7 243,333.7 243,341.8 252.3,341.8 252.3,333.7 255.1,333.7 255.1,353.1 252.3,353.1 
		252.3,344.3 243,344.3 243,353.1 240.2,353.1 	"/>
	<path class="st0" d="M275.7,333.7h2.9l8.2,19.4h-3l-2-4.9h-9.5l-2,4.9h-2.9L275.7,333.7z M277,336.4l-3.9,9.6h7.7L277,336.4z"/>
	<path class="st0" d="M298.6,336.7c-1.4-0.6-2.2-0.8-3.6-0.8c-1.6,0-3.4,0.6-3.4,2.6c0,3.7,8.3,2.9,8.3,9.2c0,4.1-3.2,5.8-7.1,5.8
		c-1.4,0-2.7-0.4-4-0.8l0.3-2.6c0.9,0.4,2.6,0.9,4,0.9c1.6,0,3.8-0.9,3.8-3.2c0-4.3-8.3-3.1-8.3-9.2c0-3.4,2.7-5.3,6.2-5.3
		c1.3,0,2.8,0.2,4.1,0.7L298.6,336.7z"/>
	<path class="st0" d="M315,336.7c-1.4-0.6-2.2-0.8-3.6-0.8c-1.6,0-3.4,0.6-3.4,2.6c0,3.7,8.3,2.9,8.3,9.2c0,4.1-3.2,5.8-7.1,5.8
		c-1.4,0-2.7-0.4-4-0.8l0.3-2.6c0.9,0.4,2.6,0.9,4,0.9c1.6,0,3.8-0.9,3.8-3.2c0-4.3-8.3-3.1-8.3-9.2c0-3.4,2.7-5.3,6.2-5.3
		c1.3,0,2.8,0.2,4.1,0.7L315,336.7z"/>
	<path class="st0" d="M329.8,333.4c5.9,0,9.3,4.3,9.3,10c0,5.9-3.4,10-9.3,10c-5.9,0-9.3-4.1-9.3-10
		C320.5,337.7,323.9,333.4,329.8,333.4 M329.8,351c4.5,0,6.4-3.7,6.4-7.6c0-3.9-2.1-7.6-6.4-7.6c-4.3,0-6.4,3.6-6.4,7.6
		C323.4,347.3,325.3,351,329.8,351"/>
	<path class="st0" d="M357.3,336.9c-1.2-0.7-2.6-1.1-4-1.1c-4.5,0-7.4,3.2-7.4,7.6c0,4.5,3.3,7.6,7.3,7.6c1.4,0,3.2-0.4,4.2-0.9
		l0.2,2.7c-1.5,0.6-3.3,0.7-4.4,0.7c-6.1,0-10.2-3.9-10.2-10.1c0-6,4.3-9.9,10.2-9.9c1.5,0,3,0.2,4.4,0.8L357.3,336.9z"/>
	<rect x="363.3" y="333.7" class="st0" width="2.8" height="19.4"/>
	<path class="st0" d="M379.1,333.7h2.9l8.2,19.4h-3l-2-4.9h-9.5l-2,4.9h-2.9L379.1,333.7z M380.5,336.4l-3.9,9.6h7.7L380.5,336.4z"
		/>
	<polygon class="st0" points="396.2,336.2 390.2,336.2 390.2,333.7 405,333.7 405,336.2 399,336.2 399,353.1 396.2,353.1 	"/>
	<rect x="411.4" y="333.7" class="st0" width="2.8" height="19.4"/>
	<path class="st0" d="M429.9,333.4c5.9,0,9.3,4.3,9.3,10c0,5.9-3.4,10-9.3,10c-5.9,0-9.3-4.1-9.3-10
		C420.6,337.7,424,333.4,429.9,333.4 M429.9,351c4.5,0,6.4-3.7,6.4-7.6c0-3.9-2.1-7.6-6.4-7.6c-4.3,0-6.4,3.6-6.4,7.6
		C423.5,347.3,425.4,351,429.9,351"/>
	<polygon class="st0" points="444.5,333.7 448.3,333.7 456.9,349.3 456.9,349.3 456.9,333.7 459.7,333.7 459.7,353.1 456.1,353.1 
		447.4,337.2 447.3,337.2 447.3,353.1 444.5,353.1 	"/>
	<path class="st0" d="M420.4,236.8h-45.6c-1.1,2.5-1.9,4.3-2.9,6.7c-2.9,6.7-5.5,12.6-7.8,17.8c-2.6,5.7-4.7,9.9-6.5,12.8
		c-1.8,2.9-3.1,4.7-3.8,5.5c-0.3,0.4-1.5,1.3-3.6,2.5c-0.3,0.2-0.6,0.3-0.9,0.5c-0.1,0-0.1,0-0.2-0.1c-2.5-0.9-4.5-2.5-5.9-4.8
		c-0.7-1-1.1-2.9-1.3-5.7c-0.2-2.8-0.3-5.8-0.3-9.1c0-4.1,0-7.8-0.1-11.2c-0.1-3.4-0.1-6.7-0.1-9.8v-55.5c0-1.8,0.1-3.6,0.2-5.4
		c0.1-1.8,0.3-3.3,0.5-4.8c0.2-1.4,0.6-2.5,1-3.3c1.2-2.3,3.2-4,5.8-5.2c2.6-1.2,5.3-2,8-2.3v-1.7h-51.1v1.7
		c2.6,0.1,5.2,0.5,7.8,1.3c2.6,0.7,4.9,2.6,7,5.7c0.9,1.5,1.5,3.4,1.6,5.7c0.2,2.3,0.3,4.6,0.4,6.7c0.1,3.7,0.2,7.1,0.2,10v29.2v0.4
		v4.3h-58.1v-23.7c0-4.2,0-8.6,0.1-13.2c0-4.6,0.1-8.9,0.3-12.8c0.1-2.6,0.7-4.8,1.7-6.5c1-1.7,2.3-3,3.7-4c1.5-1,3.1-1.7,4.9-2.1
		c1.8-0.4,3.5-0.8,5.1-1v-1.7h-50.6v1.7c2.9,0.3,5.6,0.9,7.9,1.8c2.3,0.9,4.3,2.2,5.9,4.2c0.7,0.8,1.2,1.9,1.5,3.3
		c0.3,1.4,0.6,3,0.8,4.8c0.2,1.8,0.3,3.6,0.3,5.7v49.1c0,3.4,0,6.7-0.1,9.9c0,3.2-0.1,6.2-0.2,8.9c-0.1,2.7-0.1,4.9-0.1,6.5
		c0,1.8,0,3.7-0.2,5.7c-0.1,2-0.3,3.8-0.4,5.5c-0.2,1.7-0.4,3.2-0.7,4.5c-0.3,1.3-0.7,2.2-1.1,2.8c-1.4,1.6-3.4,2.9-6,4
		c-2.6,1.1-5.3,1.8-8.1,2.3v1.7h35.3l0-52.8h58.1l-0.1,53h55.6v-1.7c-1.4-0.2-3-0.5-4.6-0.8c-1.6-0.3-3.1-0.7-4.5-1.3
		c-1.4-0.6-2.5-1.4-3.4-2.3c-0.9-0.9-1.3-2.1-1.3-3.6c0-2.4,1.2-6.7,3.5-12.7c1.6-3.9,3.1-7.8,4.7-11.6c1.4-3.5,2.9-7.2,4.4-11.1
		h45.2l17.9,45h18.1l-3.9-10.6c-0.2-0.3-0.6-1.5-0.7-1.7c-1.1-3-1.7-4.9-2.7-7.2c-0.9-2.3-2-5.7-3.2-9.1c-2.7-7-5.3-14.1-8-21.3
		c-2.7-7.2-5.4-14.6-8.3-22.3c-2.8-7.7-5.8-15.6-8.9-23.9c-3.1-8.3-6.4-17-9.8-26.2h-1.3c-0.4,0.8-1.1,1.8-1.9,3
		c-0.8,1.2-1.9,2.5-3.1,3.8c-1.2,1.3-2.6,2.6-4.2,3.8c-1.6,1.2-3.4,2.3-5.4,3.2l1.7,3.7L420.4,236.8z M234.7,199.3
		c0-6.8-1.6-12.7-4.9-17.7c-3.3-5-7.4-8.8-12.4-11.6c-5.1-2.8-10.5-4.6-16.3-5.4c-5.8-0.7-12.4-1.1-19.9-1.1h-7.6
		c-3,0-6.1,0-9.4,0.1c-3.3,0.1-6.7,0.1-10.1,0.1c-3.4,0-6.5,0-9.4,0.1c-2.9,0.1-5.4,0.1-7.6,0.1H133v1.7c3.1,0.5,5.9,1,8.6,1.6
		c2.7,0.6,4.8,1.8,6.5,3.7c0.7,0.7,1.2,1.8,1.6,3.3c0.4,1.5,0.7,3.2,0.8,5.1c0.2,1.9,0.3,3.9,0.3,6c0.1,2.1,0.1,4.2,0.1,6.2v43
		c0,3.4,0,6.7-0.1,9.9c-0.1,3.2-0.1,6.2-0.2,8.9c-0.1,2.7-0.1,4.9-0.1,6.5c0,1.8-0.1,3.7-0.2,5.6c-0.1,1.9-0.3,3.7-0.4,5.4
		c-0.2,1.7-0.4,3.2-0.8,4.6c-0.3,1.4-0.8,2.4-1.4,3c-1.5,1.8-3.5,3.2-6.1,4.1c-1.7,0.6-3.5,1.1-5.3,1.5l-3.1-8.3
		c-0.2-0.3-0.6-1.5-0.7-1.7c-1.1-3-1.7-4.9-2.7-7.2c-0.9-2.3-2-5.7-3.2-9.1c-2.7-7-5.3-14.1-8-21.3c-2.7-7.2-5.4-14.6-8.2-22.3
		c-2.8-7.7-5.8-15.6-8.9-23.9c-3.1-8.3-6.4-17-9.8-26.2h-1.3c-0.4,0.8-1.1,1.8-1.9,3c-0.8,1.2-1.9,2.5-3.1,3.8
		c-1.2,1.3-2.6,2.6-4.3,3.8c-1.6,1.2-3.4,2.3-5.4,3.2l1.7,3.7l22,55.3h0h0H54c-1.1,2.5-1.9,4.3-2.9,6.7c-2.9,6.7-5.5,12.6-7.8,17.8
		c-2.6,5.7-4.7,9.9-6.5,12.8c-1.8,2.9-3.1,4.7-3.8,5.5c-0.3,0.4-1.5,1.3-3.6,2.5c-2.1,1.2-4.5,2-7.4,2.3v1.8h35.5v-1.7
		c-1.4-0.2-3-0.5-4.6-0.8c-1.6-0.3-3.1-0.7-4.5-1.3c-1.4-0.6-2.5-1.4-3.4-2.3c-0.9-0.9-1.3-2.1-1.3-3.6c0-2.4,1.2-6.7,3.5-12.7
		c1.5-3.9,3.1-7.8,4.7-11.6c1.4-3.5,2.9-7.2,4.4-11.1h45.2l17.9,45H188v-1.7c-4.6-0.2-8.3-1.1-10.9-2.6c-2.6-1.5-4.4-2.9-5.3-4.4
		c-1.1-1.7-1.8-3.9-1.9-6.5c-0.1-2.6-0.2-5.7-0.3-9.3c0-1.9,0-3.7-0.1-5.3c-0.1-1.6-0.1-3.4-0.1-5.3V211c0-5.4,0-11,0.1-16.6
		c0.1-5.7,0.1-10.5,0.3-14.4c0.1-2.6,0.2-4.6,0.3-6c0.1-1.4,0.2-2.5,0.3-3.3c0.1-0.8,0.2-1.4,0.3-1.9c0.2-0.6,0.3-1.2,0.5-1.8
		c0.8-0.1,1.8-0.3,3.1-0.4c1.3-0.2,3.1-0.3,5.5-0.3c3.3,0,6.4,0.2,9.5,0.7c3,0.4,5.9,1.3,8.7,2.5c5.4,2.6,9.8,6.5,13.2,11.6
		c3.3,5.1,5,10.9,5,17.5c0,7.1-1.9,13.6-5.8,19.3c-3.9,5.7-9.4,9.8-16.6,12.3c-1.7,0.6-3.4,1.1-5.2,1.4l0.1,3.3c0.2,0,0.4,0,0.6,0
		c3.7-0.3,7.3-0.7,11-1.3c3.6-0.6,7-1.4,10.2-2.5c3.1-1.1,6.1-2.6,9-4.5c2.9-1.9,5.5-4.1,7.7-6.7c2.2-2.6,4-5.6,5.3-9
		C234,207.3,234.7,203.5,234.7,199.3"/>
	<path class="st0" d="M-81.7,211.7v-55.3c-24.5,6.8-43.5,26.9-48.6,52.1l27,15.6L-81.7,211.7z"/>
	<path class="st1" d="M-131.3,215c-0.2,2.3-0.4,4.7-0.4,7.1c0,16.8,6.1,32.1,16.1,44l36.4-21L-131.3,215z"/>
	<path class="st2" d="M-44.8,210.9l47.5,27.4c1.3-5.2,2-10.7,2-16.3c0-20.1-8.7-38.2-22.6-50.7l-26.9,15.5V210.9z"/>
	<path class="st3" d="M-42.3,286.3v-30.7l-20.8-12l-47.2,27.3c12.7,12.2,29.3,18.9,46.9,18.9C-56.3,289.7-49.2,288.5-42.3,286.3"/>
	<path class="st4" d="M-23,167.2c-11.3-8.4-25.3-13.3-40.5-13.3c-4.1,0-8.1,0.4-12.1,1.1v42.6L-23,167.2z"/>
	<path class="st5" d="M-35.7,284.3c17.1-7.6,30.4-22.1,36.6-39.9l-36.6-21.1V284.3z"/>
</g>
</svg>
