<?xml version="1.0" encoding="iso-8859-1"?>
<!-- Generator: Adobe Illustrator 19.0.0, SVG Export Plug-In . SVG Version: 6.00 Build 0)  -->
<svg version="1.1" id="Layer_1" xmlns="http://www.w3.org/2000/svg" xmlns:xlink="http://www.w3.org/1999/xlink" x="0px" y="0px"
	 viewBox="0 0 486.4 486.4" style="enable-background:new 0 0 486.4 486.4;" xml:space="preserve">
<g>
	<g>
		<circle style="fill:#D7E1F2;" cx="243.2" cy="243.2" r="233.7"/>
		<path d="M243.2,486.4c-64.961,0-126.034-25.297-171.968-71.231C25.297,369.234,0,308.161,0,243.2S25.297,117.166,71.232,71.231
			C117.166,25.297,178.239,0,243.2,0s126.034,25.297,171.968,71.231C461.103,117.166,486.4,178.239,486.4,243.2
			s-25.297,126.034-71.232,171.969C369.234,461.103,308.161,486.4,243.2,486.4z M243.2,19C119.576,19,19,119.576,19,243.2
			s100.576,224.2,224.2,224.2s224.2-100.576,224.2-224.2S366.824,19,243.2,19z"/>
	</g>
	<path style="fill:#3B4D81;" d="M196.129,182.166l-84.227-61.116c-7.206-5.229-8.824-15.403-3.595-22.609l0,0
		c5.229-7.206,15.403-8.824,22.609-3.595l84.227,61.116c7.206,5.229,8.824,15.403,3.595,22.609l0,0
		C213.509,185.777,203.335,187.395,196.129,182.166z"/>
	<path style="fill:#3B4D81;" d="M262.671,292.369l-49.749-91.402c-4.256-7.82-1.341-17.701,6.479-21.957l0,0
		c7.82-4.256,17.701-1.341,21.957,6.479l49.749,91.402c4.256,7.82,1.341,17.701-6.479,21.957l0,0
		C276.808,303.105,266.927,300.189,262.671,292.369z"/>
	<path style="fill:#3B4D81;" d="M384.307,368.749l-86.622-57.671c-7.411-4.934-9.438-15.035-4.504-22.446l0,0
		c4.934-7.411,15.035-9.438,22.446-4.504l86.622,57.671c7.411,4.934,9.438,15.035,4.504,22.446l0,0
		C401.818,371.656,391.718,373.683,384.307,368.749z"/>
	<path d="M418.444,350.224c-1.353-6.74-5.235-12.54-10.931-16.333l-86.622-57.67c-5.696-3.794-12.547-5.139-19.285-3.785
		c-0.635,0.128-1.259,0.285-1.877,0.457c-0.093-0.181-0.18-0.363-0.278-0.543l-49.749-91.403
		c-3.936-7.231-10.869-11.799-18.425-13.042c-0.046-0.955-0.138-1.914-0.291-2.872c-1.08-6.788-4.724-12.741-10.264-16.76
		l-84.227-61.116c-11.464-8.319-27.557-5.758-35.877,5.705c-4.019,5.539-5.638,12.328-4.558,19.117
		c1.079,6.789,4.724,12.742,10.264,16.76l84.227,61.116l0,0c3.292,2.389,7.025,3.926,10.937,4.557
		c0.168,3.772,1.167,7.563,3.09,11.096l49.749,91.402c0,0,0,0,0,0.001c3.272,6.01,8.704,10.392,15.297,12.338
		c2.419,0.713,4.885,1.067,7.335,1.067c2.322,0,4.627-0.329,6.866-0.959c1.973,3.859,4.899,7.168,8.594,9.629l86.622,57.67
		c4.251,2.831,9.144,4.298,14.155,4.298c1.703,0,3.421-0.17,5.13-0.513c6.74-1.353,12.54-5.234,16.333-10.931
		C418.453,363.813,419.797,356.963,418.444,350.224z M117.481,113.361c-1.431-1.039-2.375-2.589-2.657-4.366
		s0.134-3.543,1.173-4.975c1.039-1.431,2.589-2.375,4.366-2.658c1.774-0.282,3.543,0.134,4.974,1.173l84.228,61.116
		c2.984,2.165,3.65,6.356,1.485,9.34c-2.165,2.985-6.356,3.652-9.341,1.485l0,0L117.481,113.361z M275.002,291.026
		c-1.726-0.509-3.141-1.645-3.987-3.199v0.001l-49.749-91.402c-1.763-3.239-0.562-7.309,2.677-9.071
		c1.553-0.845,3.358-1.031,5.084-0.521s3.141,1.645,3.987,3.198l49.749,91.402c1.763,3.239,0.562,7.309-2.677,9.071
		C278.532,291.349,276.726,291.534,275.002,291.026z M398.845,358.98c-0.98,1.472-2.491,2.478-4.256,2.831
		c-1.763,0.354-3.545,0.009-5.018-0.97c0-0.001,0-0.001,0-0.001l-86.623-57.671c-1.472-0.98-2.478-2.491-2.831-4.255
		c-0.354-1.765-0.009-3.546,0.971-5.018c0.98-1.472,2.491-2.478,4.255-2.831c0.452-0.091,0.905-0.135,1.354-0.135
		c1.303,0,2.569,0.378,3.664,1.107l86.623,57.671c1.472,0.98,2.478,2.491,2.831,4.255
		C400.169,355.726,399.824,357.508,398.845,358.98z"/>
	<path style="fill:#3B4D81;" d="M225.456,408.581l-37.13-105.575c-1.691-4.808-6.127-7.903-10.939-8.158
		c0.325-0.283,0.639-0.584,0.939-0.906l5.354-5.775c4.58-4.939,4.286-12.727-0.654-17.307l-82.065-76.092
		c-4.939-4.58-12.727-4.286-17.307,0.654l-5.354,5.775c-4.58,4.939-4.286,12.727,0.654,17.307l82.065,76.092
		c1.689,1.566,3.713,2.548,5.826,2.983l-1.564,0.55c-6.354,2.235-9.724,9.262-7.49,15.616l37.13,105.575
		c2.235,6.354,9.262,9.724,15.616,7.49l7.429-2.613C224.321,421.962,227.691,414.935,225.456,408.581z"/>
	<path d="M234.419,405.429l-37.13-105.574c-1.041-2.961-2.669-5.548-4.698-7.695c6.026-8.743,4.907-20.837-3.103-28.265v-0.001
		l-82.065-76.092c-4.249-3.94-9.793-5.983-15.606-5.771c-5.814,0.22-11.186,2.681-15.127,6.931l-5.354,5.774
		c-3.94,4.249-5.989,9.791-5.77,15.605c0.219,5.815,2.681,11.187,6.93,15.127l78.413,72.706c-3.371,5.414-4.354,12.251-2.078,18.721
		l37.129,105.574c3.142,8.934,11.561,14.534,20.535,14.534c2.388,0,4.816-0.397,7.194-1.233l7.429-2.612
		C232.43,429.18,238.397,416.741,234.419,405.429z M84.552,209.626c-0.016-0.43,0.055-1.259,0.716-1.971l5.354-5.774
		c0.661-0.713,1.481-0.846,1.911-0.862c0.032-0.001,0.068-0.002,0.105-0.002c0.45,0,1.207,0.108,1.866,0.718l82.065,76.091
		c1.092,1.013,1.159,2.791,0.148,3.882l-5.355,5.775c-1.012,1.093-2.79,1.16-3.881,0.147l-82.065-76.093
		C84.702,210.876,84.569,210.056,84.552,209.626z M214.815,415.235l-7.428,2.612c-1.403,0.49-3.008-0.276-3.503-1.68
		l-37.129-105.575c-0.322-0.917-0.058-1.704,0.128-2.092c0.186-0.389,0.635-1.088,1.551-1.41l7.428-2.612
		c0.289-0.101,0.587-0.149,0.882-0.149c1.136,0,2.228,0.714,2.62,1.829l37.13,105.574
		C216.989,413.137,216.219,414.742,214.815,415.235z"/>
	<g>
		<path d="M436.05,252.7c-5.247,0-9.5-4.254-9.5-9.5c0-62.096-31.066-119.495-83.1-153.542c-4.391-2.873-5.621-8.761-2.748-13.152
			c2.872-4.39,8.762-5.619,13.151-2.748c57.418,37.57,91.697,100.912,91.697,169.441C445.55,248.446,441.297,252.7,436.05,252.7z"/>
	</g>
	<g>
		<path d="M291.656,65.989c-0.788,0-1.588-0.098-2.386-0.305c-14.961-3.871-30.461-5.834-46.07-5.834c-5.247,0-9.5-4.254-9.5-9.5
			s4.253-9.5,9.5-9.5c17.215,0,34.316,2.166,50.83,6.44c5.08,1.314,8.132,6.497,6.817,11.576
			C299.739,63.148,295.882,65.989,291.656,65.989z"/>
	</g>
</g>
<g>
</g>
<g>
</g>
<g>
</g>
<g>
</g>
<g>
</g>
<g>
</g>
<g>
</g>
<g>
</g>
<g>
</g>
<g>
</g>
<g>
</g>
<g>
</g>
<g>
</g>
<g>
</g>
<g>
</g>
</svg>
