<?xml version="1.0" encoding="iso-8859-1"?>
<!-- Generator: Adobe Illustrator 19.0.0, SVG Export Plug-In . SVG Version: 6.00 Build 0)  -->
<svg version="1.1" id="Layer_1" xmlns="http://www.w3.org/2000/svg" xmlns:xlink="http://www.w3.org/1999/xlink" x="0px" y="0px"
	 viewBox="0 0 512.008 512.008" style="enable-background:new 0 0 512.008 512.008;" xml:space="preserve">
<g>
	<path style="fill:#4EB79B;" d="M218.999,324.124l-16.009,16.178l-35.114,35.114l-20.466-20.49l-10.805-10.805l50.521-50.521
		l0.084,0.096c4.517,5.686,10.083,10.504,15.335,15.756C207.82,314.728,213.313,319.618,218.999,324.124z"/>
	<polygon style="fill:#4EB79B;" points="202.989,340.301 167.875,375.416 147.409,354.925 136.603,344.12 187.125,293.599 	"/>
</g>
<polygon style="fill:#40A084;" points="192.604,309.73 147.409,354.925 136.603,344.12 175.825,304.898 "/>
<rect x="52.985" y="352.107" transform="matrix(-0.7071 -0.7071 0.7071 -0.7071 -143.3337 783.4564)" style="fill:#4EB79B;" width="75.215" height="138.613"/>
<rect x="59.706" y="335.883" transform="matrix(-0.7071 -0.7071 0.7071 -0.7071 -159.5596 744.2867)" style="fill:#40A084;" width="29.322" height="138.613"/>
<rect x="97.421" y="346.661" transform="matrix(-0.7071 -0.7071 0.7071 -0.7071 -9.3277 727.9445)" style="fill:#F7A872;" width="97.356" height="38.486"/>
<rect x="107.382" y="322.605" transform="matrix(-0.7071 -0.7071 0.7071 -0.7071 -33.3828 669.8679)" style="fill:#E09461;" width="29.321" height="38.486"/>
<path style="fill:#F7A872;" d="M14.258,497.746L14.258,497.746c-19.011-19.011-19.011-49.833,0-68.845l0,0l68.845,68.845l0,0
	C64.093,516.756,33.27,516.756,14.258,497.746z"/>
<path style="fill:#E09461;" d="M34.737,449.38L34.737,449.38l-20.478-20.478l0,0c-19.011,19.011-19.011,49.833,0,68.845l0,0
	c3.566,3.566,7.547,6.463,11.787,8.69C16.395,488.066,19.292,464.824,34.737,449.38z"/>
<circle style="fill:#F7A872;" cx="321.704" cy="190.308" r="190.304"/>
<circle style="fill:#8ED7E0;" cx="321.704" cy="190.308" r="142.831"/>
<path style="fill:#7CC3D1;" d="M252.622,121.23c50.348-50.348,128.929-55.243,184.776-14.701
	c-4.374-6.025-9.269-11.79-14.701-17.221c-55.781-55.781-146.218-55.781-201.997,0s-55.781,146.218,0,201.997
	c5.432,5.432,11.196,10.327,17.221,14.701C197.377,250.159,202.273,171.578,252.622,121.23z"/>
<path style="fill:#E09461;" d="M321.698,342.104c-38.891,0-77.78-14.803-107.387-44.41c-59.213-59.214-59.213-155.561,0-214.775
	c28.684-28.684,66.822-44.481,107.387-44.481c40.565,0,78.703,15.797,107.387,44.481c28.684,28.684,44.481,66.821,44.481,107.387
	s-15.797,78.703-44.481,107.387C399.479,327.3,360.588,342.104,321.698,342.104z M321.698,56.57
	c-34.263,0-68.527,13.042-94.611,39.126c-52.168,52.168-52.168,137.052,0,189.221c52.17,52.168,137.053,52.168,189.221,0l0,0
	c25.272-25.272,39.19-58.872,39.19-94.611s-13.918-69.339-39.19-94.61C390.224,69.612,355.961,56.57,321.698,56.57z"/>
<g>
	<path style="fill:#40A084;" d="M319.15,141.601c-11.612,15.853-25.598,29.838-41.451,41.451c-1.144,0.843-2.349,1.542-3.59,2.096
		c-8.986,4.035-19.912,0.819-25.008-8.107c-0.06-0.108-0.133-0.229-0.193-0.337c-4.951-8.685-2.481-19.611,5.577-25.526
		c12.54-9.191,23.598-20.249,32.789-32.789c5.553-7.565,15.539-10.203,23.924-6.384c0.542,0.229,1.072,0.506,1.602,0.807
		c0.108,0.06,0.229,0.133,0.337,0.193C323.306,118.81,326.064,132.157,319.15,141.601z"/>
	<path style="fill:#40A084;" d="M333.545,239.018c-11.612,15.853-25.586,29.826-41.451,41.451c-1.144,0.843-2.349,1.542-3.59,2.096
		c-8.986,4.035-19.912,0.819-25.008-8.107c-0.06-0.12-0.12-0.229-0.193-0.349c-4.951-8.673-2.469-19.599,5.577-25.514
		c12.54-9.203,23.598-20.262,32.802-32.802c5.565-7.565,15.551-10.215,23.936-6.372c0.53,0.229,1.06,0.494,1.578,0.795
		c0.12,0.072,0.229,0.133,0.349,0.205C337.713,216.215,340.471,229.574,333.545,239.018z"/>
	<path style="fill:#40A084;" d="M407.074,215.42c-0.108,0.06-0.229,0.12-0.349,0.169c-0.217,0.108-0.434,0.217-0.663,0.313
		c-10.348,4.698-22.526-0.458-26.441-11.239c-6.71-18.467-10.54-37.861-11.359-57.496c-0.494-11.709,9.227-21.261,20.9-20.418
		c0.133,0.012,0.265,0.012,0.398,0.024c2.265,0.169,4.409,0.711,6.384,1.59c6.71,2.927,11.384,9.54,11.709,17.25
		c0.663,15.539,3.698,30.874,8.998,45.498C420.048,200.506,416.025,210.963,407.074,215.42z"/>
</g>
<g>
	<path style="fill:#4EB79B;" d="M319.15,141.601c-11.612,15.853-25.598,29.838-41.451,41.451c-1.144,0.843-2.349,1.542-3.59,2.096
		c-3.626-1.602-6.806-4.349-8.95-8.107c-0.06-0.108-0.133-0.229-0.193-0.337c-4.951-8.685-2.482-19.611,5.577-25.526
		c12.54-9.191,23.598-20.249,32.802-32.789c2.096-2.855,4.818-5.011,7.854-6.384c0.542,0.229,1.072,0.506,1.602,0.807
		c0.108,0.06,0.229,0.133,0.337,0.193C323.306,118.81,326.064,132.157,319.15,141.601z"/>
	<path style="fill:#4EB79B;" d="M333.545,239.018c-11.612,15.853-25.586,29.826-41.451,41.451c-1.144,0.843-2.349,1.542-3.59,2.096
		c-3.626-1.602-6.794-4.349-8.938-8.107c-0.072-0.12-0.133-0.229-0.193-0.349c-4.951-8.673-2.482-19.599,5.577-25.514
		c12.528-9.203,23.598-20.262,32.789-32.802c2.096-2.855,4.831-5.011,7.878-6.372c0.53,0.229,1.06,0.494,1.578,0.795
		c0.12,0.072,0.229,0.133,0.349,0.205C337.713,216.215,340.471,229.574,333.545,239.018z"/>
	<path style="fill:#4EB79B;" d="M407.074,215.42c-0.108,0.06-0.229,0.12-0.349,0.169c-0.217,0.108-0.434,0.217-0.663,0.313
		c-4.638-2.108-8.48-6.011-10.372-11.239c-6.71-18.467-10.54-37.861-11.371-57.496c-0.349-8.384,4.529-15.66,11.624-18.804
		c6.71,2.927,11.384,9.54,11.709,17.25c0.663,15.539,3.698,30.874,8.998,45.498C420.048,200.506,416.025,210.963,407.074,215.42z"/>
</g>
<path style="fill:#40A084;" d="M373.249,267.567c0,5.541-3.505,10.275-8.42,12.07c-1.373,0.506-2.867,0.783-4.421,0.783
	c-7.095,0-12.853-5.758-12.853-12.853c0-7.095,5.758-12.841,12.853-12.841c1.554,0,3.048,0.277,4.421,0.783
	C369.743,257.304,373.249,262.026,373.249,267.567z"/>
<path style="fill:#4EB79B;" d="M373.249,267.567c0,5.541-3.505,10.275-8.42,12.07c-4.927-1.795-8.444-6.529-8.444-12.07
	c0-5.541,3.517-10.263,8.444-12.058C369.743,257.304,373.249,262.026,373.249,267.567z"/>
<g>
</g>
<g>
</g>
<g>
</g>
<g>
</g>
<g>
</g>
<g>
</g>
<g>
</g>
<g>
</g>
<g>
</g>
<g>
</g>
<g>
</g>
<g>
</g>
<g>
</g>
<g>
</g>
<g>
</g>
</svg>
