<?xml version="1.0" encoding="utf-8"?>
<!-- Generator: Adobe Illustrator 16.0.0, SVG Export Plug-In . SVG Version: 6.00 Build 0)  -->
<svg version="1.2" baseProfile="tiny" id="Layer_1" xmlns="http://www.w3.org/2000/svg" xmlns:xlink="http://www.w3.org/1999/xlink"
	 x="0px" y="0px" width="1000px" height="1000px" viewBox="0 0 1000 1000" xml:space="preserve">
<g>
	<g>
		<path fill="none" d="M461.521,542.004c16.77,0,36.282,7.879,45.861,12.68l17.798-43.543c-21.562-10.278-42.44-15.772-66.4-15.772
			c-40.726,0-66.741,23.991-66.741,54.514c0,25.369,12.656,41.477,46.548,52.102c20.545,6.525,28.069,9.955,28.069,16.457
			c0,5.154-4.801,8.57-12.672,8.57c-12.321,0-30.799-4.801-45.85-12.68l-17.804,41.479c12.667,10.283,40.046,18.523,67.081,18.523
			c41.747,0,67.417-22.635,67.417-56.232c0-30.854-22.242-44.564-57.49-56.223c-14.376-4.801-18.485-7.875-18.485-12.678
			C448.853,544.74,453.647,542.004,461.521,542.004z"/>
		<path fill="#E9583A" d="M726.727,584.855c0,56.912-35.923,89.479-81.449,89.479c-13.361,0-31.732-4.801-41.76-13.5v78.291h251.899
			l-128.69-154.352V584.855z"/>
		<path fill="#E9583A" d="M542.941,498.803h28.751c4.79,0,7.537,2.06,8.546,5.134l7.35,19.025
			c7.63-11.67,29.677-27.594,57.007-27.594h7.597L456.699,260.874h-0.02L261.281,495.474v92.127
			c0,19.535,7.173,31.533,24.631,31.533c17.116,0,27.383-14.393,27.383-29.15v-91.181h60.911v171.083h-27.718
			c-4.783,0-7.524-2.08-8.546-5.156l-8.336-19.852c-11.234,17.881-30.482,29.455-54.296,29.455
			c-50.663,0-74.957-36.004-74.957-84.689v-21.037L58.308,739.125h484.634V498.803z M467.338,561.879
			c35.248,11.658,57.49,25.369,57.49,56.223c0,33.598-25.67,56.232-67.417,56.232c-27.035,0-54.414-8.24-67.081-18.523
			l17.804-41.479c15.051,7.879,33.528,12.68,45.85,12.68c7.871,0,12.672-3.416,12.672-8.57c0-6.502-7.524-9.932-28.069-16.457
			c-33.892-10.625-46.548-26.732-46.548-52.102c0-30.523,26.016-54.514,66.741-54.514c23.96,0,44.839,5.494,66.4,15.772
			l-17.798,43.543c-9.579-4.801-29.092-12.68-45.861-12.68c-7.873,0-12.668,2.736-12.668,7.197
			C448.853,554.004,452.962,557.078,467.338,561.879z"/>
		<path fill="#E9583A" d="M633.982,621.529c19.864,0,32.167-16.105,32.167-35.654c0-20.227-13.688-35.324-33.188-35.324
			c-18.831,0-30.816,14.758-30.816,35.324C602.145,605.764,613.098,621.529,633.982,621.529z"/>
	</g>
	<g>
		<path fill="none" d="M666.149,585.875c0-20.227-13.688-35.324-33.188-35.324c-18.831,0-30.816,14.758-30.816,35.324
			c0,19.889,10.953,35.654,31.838,35.654C653.847,621.529,666.149,605.424,666.149,585.875z"/>
		<path fill="#FFFFFF" d="M726.727,584.855v-0.072l-74.548-89.415h-7.584c-27.33,0-49.377,15.924-57.007,27.594l-7.35-19.025
			c-1.009-3.075-3.756-5.134-8.546-5.134h-28.751v240.312h60.576v-78.281c10.027,8.699,28.398,13.5,41.76,13.5
			C690.804,674.334,726.727,641.768,726.727,584.855z M602.145,585.875c0-20.566,11.985-35.324,30.816-35.324
			c19.5,0,33.188,15.098,33.188,35.324c0,19.549-12.303,35.654-32.167,35.654C613.098,621.529,602.145,605.764,602.145,585.875z"/>
		<path fill="#FFFFFF" d="M453.989,627.023c-12.32,0-30.799-4.813-45.86-12.678l-17.793,41.465
			c12.656,10.283,40.045,18.512,67.08,18.512c41.748,0,67.412-22.623,67.412-56.221c0-30.854-22.247-44.564-57.484-56.232
			c-14.376-4.791-18.484-7.879-18.484-12.68c0-4.461,4.783-7.195,12.667-7.195c16.759,0,36.27,7.877,45.85,12.689l17.804-43.537
			c-21.566-10.29-42.446-15.783-66.406-15.783c-40.715,0-66.729,24.006-66.729,54.508c0,25.381,12.654,41.488,46.549,52.123
			c20.532,6.506,28.069,9.932,28.069,16.461C466.663,623.596,461.867,627.023,453.989,627.023z"/>
		<path fill="#FFFFFF" d="M200.354,568.607v21.037c0,48.695,24.294,84.689,74.952,84.689c23.813,0,43.062-11.574,54.313-29.465
			l8.317,19.861c1.021,3.076,3.762,5.143,8.558,5.143h27.725v-171.07h-60.924v91.195c0,14.744-10.267,29.137-27.39,29.137
			c-17.451,0-24.63-12.01-24.63-31.545v-92.116L200.354,568.607z"/>
		<polygon fill="#E9583A" points="925.35,731.941 916.429,709.225 908.81,709.225 908.81,739.115 913.74,739.115 913.74,714.156 
			913.893,714.156 923.688,739.115 926.814,739.115 936.609,714.156 936.75,714.156 936.75,739.115 941.68,739.115 941.68,709.225 
			934.145,709.225 		"/>
		<polygon fill="#E9583A" points="893.36,739.115 893.36,713.217 902.728,713.217 902.728,709.236 879.061,709.236 879.061,713.217 
			888.429,713.217 888.429,739.115 		"/>
	</g>
</g>
</svg>
